<svg xmlns="http://www.w3.org/2000/svg" xmlns:xlink="http://www.w3.org/1999/xlink" width="1080" zoomAndPan="magnify" viewBox="0 0 810 809.999993" height="1080" preserveAspectRatio="xMidYMid meet" version="1.0"><path fill="#070a0e" d="M 405.1875 0 C 398.558594 0.00390625 391.933594 0.167969 385.3125 0.496094 C 378.691406 0.824219 372.082031 1.3125 365.488281 1.964844 C 358.890625 2.617188 352.3125 3.429688 345.757812 4.40625 C 339.199219 5.378906 332.671875 6.515625 326.171875 7.808594 C 319.667969 9.105469 313.203125 10.558594 306.773438 12.171875 C 300.34375 13.785156 293.957031 15.554688 287.617188 17.480469 C 281.273438 19.40625 274.980469 21.488281 268.742188 23.722656 C 262.5 25.957031 256.320312 28.34375 250.195312 30.882812 C 244.074219 33.421875 238.015625 36.109375 232.023438 38.945312 C 226.03125 41.78125 220.113281 44.765625 214.269531 47.890625 C 208.425781 51.019531 202.660156 54.285156 196.976562 57.695312 C 191.289062 61.105469 185.691406 64.652344 180.183594 68.335938 C 174.671875 72.023438 169.253906 75.839844 163.933594 79.789062 C 158.609375 83.738281 153.386719 87.820312 148.265625 92.027344 C 143.140625 96.234375 138.125 100.5625 133.214844 105.015625 C 128.304688 109.46875 123.507812 114.039062 118.820312 118.730469 C 114.136719 123.417969 109.566406 128.21875 105.117188 133.132812 C 100.667969 138.042969 96.339844 143.0625 92.136719 148.1875 C 87.933594 153.316406 83.859375 158.539062 79.910156 163.867188 C 75.964844 169.191406 72.152344 174.609375 68.46875 180.121094 C 64.789062 185.636719 61.246094 191.234375 57.839844 196.921875 C 54.433594 202.609375 51.167969 208.375 48.046875 214.222656 C 44.921875 220.070312 41.945312 225.988281 39.113281 231.984375 C 36.28125 237.976562 33.597656 244.035156 31.0625 250.160156 C 28.527344 256.285156 26.144531 262.46875 23.914062 268.710938 C 21.683594 274.953125 19.605469 281.246094 17.683594 287.589844 C 15.761719 293.933594 13.996094 300.320312 12.386719 306.75 C 10.777344 313.183594 9.328125 319.648438 8.039062 326.148438 C 6.746094 332.652344 5.617188 339.179688 4.644531 345.738281 C 3.675781 352.296875 2.867188 358.871094 2.21875 365.46875 C 1.570312 372.066406 1.085938 378.675781 0.761719 385.296875 C 0.4375 391.917969 0.277344 398.542969 0.28125 405.171875 C 0.28125 411.800781 0.445312 418.425781 0.773438 425.042969 C 1.101562 431.664062 1.589844 438.273438 2.242188 444.871094 C 2.894531 451.46875 3.707031 458.042969 4.679688 464.601562 C 5.65625 471.15625 6.792969 477.6875 8.085938 484.1875 C 9.382812 490.6875 10.835938 497.152344 12.449219 503.582031 C 14.0625 510.011719 15.828125 516.398438 17.757812 522.742188 C 19.683594 529.085938 21.761719 535.375 23.996094 541.617188 C 26.234375 547.855469 28.621094 554.039062 31.15625 560.164062 C 33.695312 566.285156 36.382812 572.34375 39.21875 578.335938 C 42.054688 584.324219 45.035156 590.246094 48.164062 596.089844 C 51.289062 601.933594 54.558594 607.699219 57.96875 613.382812 C 61.375 619.070312 64.921875 624.667969 68.609375 630.175781 C 72.292969 635.6875 76.109375 641.105469 80.058594 646.425781 C 84.011719 651.75 88.089844 656.972656 92.296875 662.097656 C 96.503906 667.21875 100.832031 672.234375 105.285156 677.144531 C 109.738281 682.054688 114.308594 686.855469 118.996094 691.539062 C 123.6875 696.226562 128.488281 700.792969 133.398438 705.246094 C 138.3125 709.695312 143.332031 714.023438 148.457031 718.226562 C 153.582031 722.429688 158.808594 726.503906 164.132812 730.453125 C 169.457031 734.398438 174.878906 738.214844 180.390625 741.894531 C 185.902344 745.574219 191.5 749.121094 197.1875 752.527344 C 202.875 755.929688 208.640625 759.195312 214.488281 762.320312 C 220.335938 765.441406 226.253906 768.421875 232.25 771.253906 C 238.242188 774.085938 244.300781 776.769531 250.425781 779.304688 C 256.550781 781.839844 262.734375 784.222656 268.976562 786.453125 C 275.21875 788.683594 281.511719 790.761719 287.855469 792.683594 C 294.199219 794.605469 300.585938 796.371094 307.015625 797.980469 C 313.445312 799.589844 319.914062 801.039062 326.414062 802.332031 C 332.914062 803.625 339.445312 804.753906 346.003906 805.726562 C 352.558594 806.695312 359.136719 807.503906 365.734375 808.152344 C 372.332031 808.800781 378.941406 809.289062 385.5625 809.609375 C 392.179688 809.933594 398.804688 810.09375 405.433594 810.09375 C 412.0625 810.089844 418.6875 809.925781 425.308594 809.601562 C 431.929688 809.273438 438.539062 808.785156 445.136719 808.132812 C 451.730469 807.480469 458.308594 806.667969 464.863281 805.691406 C 471.421875 804.71875 477.949219 803.585938 484.453125 802.289062 C 490.953125 800.996094 497.417969 799.539062 503.847656 797.929688 C 510.277344 796.316406 516.664062 794.546875 523.007812 792.621094 C 529.347656 790.695312 535.640625 788.613281 541.882812 786.378906 C 548.121094 784.144531 554.304688 781.757812 560.425781 779.21875 C 566.550781 776.683594 572.609375 773.996094 578.601562 771.160156 C 584.59375 768.324219 590.511719 765.34375 596.355469 762.214844 C 602.199219 759.089844 607.964844 755.824219 613.648438 752.414062 C 619.335938 749.003906 624.933594 745.457031 630.445312 741.773438 C 635.953125 738.089844 641.371094 734.273438 646.695312 730.320312 C 652.019531 726.371094 657.242188 722.292969 662.363281 718.085938 C 667.488281 713.878906 672.503906 709.550781 677.414062 705.097656 C 682.324219 700.644531 687.121094 696.074219 691.808594 691.386719 C 696.496094 686.699219 701.0625 681.898438 705.511719 676.984375 C 709.964844 672.070312 714.289062 667.054688 718.496094 661.929688 C 722.699219 656.800781 726.773438 651.578125 730.722656 646.253906 C 734.667969 640.925781 738.484375 635.507812 742.164062 629.996094 C 745.847656 624.484375 749.390625 618.882812 752.796875 613.195312 C 756.203125 607.511719 759.46875 601.746094 762.589844 595.898438 C 765.714844 590.050781 768.691406 584.132812 771.527344 578.136719 C 774.359375 572.144531 777.042969 566.085938 779.578125 559.960938 C 782.113281 553.835938 784.496094 547.652344 786.726562 541.410156 C 788.960938 535.167969 791.035156 528.875 792.960938 522.53125 C 794.882812 516.191406 796.648438 509.800781 798.257812 503.371094 C 799.867188 496.941406 801.316406 490.476562 802.609375 483.972656 C 803.898438 477.472656 805.03125 470.941406 806.003906 464.386719 C 806.972656 457.828125 807.78125 451.25 808.429688 444.65625 C 809.078125 438.058594 809.566406 431.449219 809.890625 424.828125 C 810.214844 418.207031 810.375 411.582031 810.371094 404.953125 C 810.359375 398.328125 810.183594 391.707031 809.84375 385.089844 C 809.507812 378.472656 809.007812 371.867188 808.34375 365.273438 C 807.683594 358.679688 806.859375 352.105469 805.878906 345.554688 C 804.894531 339 803.75 332.476562 802.449219 325.980469 C 801.144531 319.484375 799.683594 313.023438 798.0625 306.597656 C 796.445312 300.171875 794.667969 293.792969 792.734375 287.453125 C 790.804688 281.117188 788.714844 274.828125 786.476562 268.59375 C 784.234375 262.355469 781.84375 256.179688 779.300781 250.0625 C 776.757812 243.941406 774.066406 237.890625 771.226562 231.902344 C 768.390625 225.914062 765.40625 220 762.277344 214.160156 C 759.144531 208.320312 755.875 202.558594 752.464844 196.878906 C 749.054688 191.199219 745.503906 185.605469 741.820312 180.097656 C 738.136719 174.59375 734.316406 169.179688 730.367188 163.859375 C 726.417969 158.539062 722.339844 153.320312 718.132812 148.199219 C 713.925781 143.078125 709.597656 138.066406 705.144531 133.160156 C 700.691406 128.25 696.125 123.453125 691.4375 118.769531 C 686.75 114.085938 681.953125 109.519531 677.042969 105.070312 C 672.132812 100.621094 667.113281 96.296875 661.992188 92.09375 C 656.871094 87.890625 651.648438 83.816406 646.328125 79.867188 C 641.003906 75.921875 635.589844 72.105469 630.082031 68.421875 C 624.570312 64.742188 618.976562 61.195312 613.292969 57.789062 C 607.613281 54.378906 601.847656 51.113281 596.007812 47.988281 C 590.164062 44.863281 584.25 41.882812 578.261719 39.046875 C 572.269531 36.210938 566.21875 33.523438 560.097656 30.980469 C 553.976562 28.441406 547.796875 26.054688 541.5625 23.816406 C 535.324219 21.582031 529.035156 19.5 522.695312 17.570312 C 516.355469 15.640625 509.976562 13.867188 503.546875 12.253906 C 497.121094 10.636719 490.660156 9.179688 484.164062 7.878906 C 477.667969 6.582031 471.140625 5.441406 464.589844 4.460938 C 458.035156 3.480469 451.460938 2.664062 444.867188 2.003906 C 438.273438 1.347656 431.667969 0.851562 425.050781 0.515625 C 418.433594 0.183594 411.8125 0.0117188 405.1875 0 Z M 517.039062 746.710938 C 499.46875 750.296875 492.992188 739.484375 492.992188 730.164062 C 492.992188 718.28125 493.503906 680.53125 493.503906 633.503906 C 493.503906 600.882812 482.410156 579.535156 469.734375 568.679688 C 547.796875 559.871094 629.964844 530.183594 629.964844 395.257812 C 630.03125 390.945312 629.890625 386.636719 629.546875 382.335938 C 629.203125 378.035156 628.652344 373.761719 627.898438 369.511719 C 627.148438 365.265625 626.195312 361.0625 625.039062 356.902344 C 623.886719 352.746094 622.535156 348.652344 620.988281 344.625 C 619.445312 340.597656 617.710938 336.648438 615.789062 332.785156 C 613.867188 328.925781 611.765625 325.160156 609.484375 321.5 C 607.203125 317.835938 604.75 314.292969 602.128906 310.863281 C 599.511719 307.433594 596.734375 304.140625 593.796875 300.976562 C 597.386719 292.167969 609.785156 256.234375 590.394531 207.765625 C 590.394531 207.765625 560.941406 198.164062 493.78125 243.652344 C 479.476562 239.800781 464.984375 236.90625 450.296875 234.960938 C 435.613281 233.019531 420.863281 232.046875 406.046875 232.046875 C 391.234375 232.046875 376.484375 233.019531 361.800781 234.960938 C 347.113281 236.90625 332.617188 239.800781 318.3125 243.652344 C 251.15625 198.726562 221.65625 207.765625 221.65625 207.765625 C 202.546875 256.050781 214.710938 291.980469 218.300781 300.976562 C 215.382812 304.152344 212.625 307.457031 210.023438 310.890625 C 207.425781 314.328125 204.992188 317.878906 202.726562 321.542969 C 200.460938 325.210938 198.378906 328.972656 196.46875 332.839844 C 194.5625 336.703125 192.84375 340.648438 191.308594 344.675781 C 189.777344 348.703125 188.4375 352.792969 187.292969 356.949219 C 186.148438 361.101562 185.203125 365.300781 184.457031 369.542969 C 183.710938 373.789062 183.167969 378.058594 182.824219 382.355469 C 182.484375 386.648438 182.347656 390.949219 182.414062 395.257812 C 182.414062 529.621094 264.066406 559.871094 342.082031 568.679688 C 332.015625 577.441406 322.695312 592.679688 319.617188 615.703125 C 299.4375 624.742188 249.058594 639.703125 217.554688 586.761719 C 210.84375 576.136719 191.175781 550.316406 163.539062 550.59375 C 134.082031 551.109375 151.652344 567.371094 163.816406 573.898438 C 178.777344 582.425781 195.835938 613.417969 199.984375 623.484375 C 206.925781 643.386719 229.671875 681.089844 317.800781 664.824219 C 317.800781 694.277344 318.3125 721.960938 318.3125 730.070312 C 318.3125 739.394531 311.882812 749.691406 294.265625 746.617188 C 287.757812 744.4375 281.316406 742.066406 274.945312 739.507812 C 268.574219 736.949219 262.285156 734.203125 256.078125 731.277344 C 249.867188 728.347656 243.75 725.242188 237.722656 721.953125 C 231.695312 718.664062 225.773438 715.203125 219.949219 711.566406 C 214.125 707.933594 208.414062 704.128906 202.8125 700.15625 C 197.214844 696.1875 191.734375 692.054688 186.378906 687.761719 C 181.019531 683.46875 175.792969 679.023438 170.699219 674.421875 C 165.601562 669.824219 160.644531 665.078125 155.828125 660.1875 C 151.011719 655.296875 146.339844 650.269531 141.820312 645.101562 C 137.296875 639.9375 132.929688 634.644531 128.71875 629.222656 C 124.507812 623.800781 120.460938 618.261719 116.574219 612.601562 C 112.6875 606.941406 108.972656 601.171875 105.425781 595.296875 C 101.878906 589.417969 98.507812 583.441406 95.308594 577.367188 C 92.113281 571.289062 89.097656 565.125 86.265625 558.871094 C 83.429688 552.621094 80.785156 546.289062 78.320312 539.882812 C 75.859375 533.472656 73.585938 526.996094 71.503906 520.457031 C 69.425781 513.914062 67.535156 507.316406 65.839844 500.664062 C 64.148438 494.011719 62.648438 487.316406 61.347656 480.574219 C 60.046875 473.835938 58.945312 467.0625 58.042969 460.257812 C 57.140625 453.449219 56.4375 446.625 55.933594 439.777344 C 55.429688 432.929688 55.128906 426.074219 55.03125 419.210938 C 54.929688 412.347656 55.03125 405.484375 55.335938 398.628906 C 55.640625 391.769531 56.144531 384.925781 56.847656 378.097656 C 57.554688 371.269531 58.460938 364.464844 59.5625 357.691406 C 60.667969 350.914062 61.972656 344.179688 63.472656 337.480469 C 64.972656 330.78125 66.667969 324.132812 68.558594 317.53125 C 70.449219 310.933594 72.53125 304.394531 74.808594 297.917969 C 77.082031 291.441406 79.546875 285.035156 82.195312 278.703125 C 84.847656 272.371094 87.683594 266.121094 90.699219 259.957031 C 93.71875 253.789062 96.914062 247.71875 100.289062 241.738281 C 103.664062 235.761719 107.210938 229.886719 110.933594 224.117188 C 114.652344 218.347656 118.539062 212.691406 122.589844 207.148438 C 126.640625 201.609375 130.851562 196.191406 135.222656 190.894531 C 139.59375 185.601562 144.113281 180.441406 148.789062 175.410156 C 153.460938 170.382812 158.277344 165.496094 163.238281 160.75 C 168.199219 156.003906 173.292969 151.40625 178.523438 146.960938 C 183.753906 142.515625 189.109375 138.226562 194.59375 134.09375 C 200.074219 129.960938 205.675781 125.992188 211.390625 122.191406 C 217.105469 118.386719 222.925781 114.753906 228.855469 111.292969 C 234.785156 107.832031 240.808594 104.546875 246.929688 101.441406 C 253.050781 98.332031 259.257812 95.40625 265.550781 92.664062 C 271.84375 89.921875 278.214844 87.367188 284.65625 84.996094 C 291.101562 82.628906 297.609375 80.453125 304.179688 78.464844 C 310.75 76.476562 317.375 74.6875 324.050781 73.089844 C 330.726562 71.492188 337.445312 70.089844 344.203125 68.886719 C 350.960938 67.683594 357.75 66.679688 364.570312 65.875 C 371.386719 65.074219 378.222656 64.46875 385.074219 64.066406 C 391.929688 63.664062 398.785156 63.460938 405.652344 63.460938 C 412.515625 63.460938 419.375 63.664062 426.230469 64.066406 C 433.082031 64.46875 439.917969 65.074219 446.734375 65.875 C 453.554688 66.679688 460.339844 67.683594 467.101562 68.886719 C 473.859375 70.089844 480.578125 71.492188 487.253906 73.089844 C 493.929688 74.6875 500.554688 76.476562 507.125 78.464844 C 513.695312 80.453125 520.203125 82.628906 526.648438 84.996094 C 533.089844 87.367188 539.457031 89.921875 545.75 92.664062 C 552.046875 95.40625 558.253906 98.332031 564.375 101.441406 C 570.496094 104.546875 576.519531 107.832031 582.449219 111.292969 C 588.378906 114.753906 594.199219 118.386719 599.914062 122.191406 C 605.628906 125.992188 611.230469 129.960938 616.710938 134.09375 C 622.191406 138.226562 627.550781 142.515625 632.78125 146.960938 C 638.011719 151.40625 643.105469 156.003906 648.066406 160.75 C 653.027344 165.496094 657.84375 170.382812 662.515625 175.410156 C 667.1875 180.441406 671.710938 185.601562 676.082031 190.894531 C 680.453125 196.191406 684.664062 201.609375 688.714844 207.148438 C 692.765625 212.691406 696.652344 218.347656 700.371094 224.117188 C 704.089844 229.886719 707.640625 235.761719 711.015625 241.738281 C 714.386719 247.71875 717.585938 253.789062 720.601562 259.957031 C 723.621094 266.121094 726.457031 272.371094 729.105469 278.703125 C 731.757812 285.035156 734.222656 291.441406 736.496094 297.917969 C 738.769531 304.394531 740.855469 310.933594 742.746094 317.53125 C 744.636719 324.132812 746.332031 330.78125 747.832031 337.480469 C 749.332031 344.179688 750.636719 350.914062 751.738281 357.691406 C 752.84375 364.464844 753.75 371.269531 754.453125 378.097656 C 755.160156 384.925781 755.664062 391.769531 755.96875 398.628906 C 756.269531 405.488281 756.371094 412.347656 756.273438 419.210938 C 756.171875 426.074219 755.871094 432.929688 755.371094 439.777344 C 754.867188 446.625 754.164062 453.449219 753.261719 460.257812 C 752.359375 467.0625 751.257812 473.835938 749.957031 480.574219 C 748.65625 487.316406 747.15625 494.011719 745.460938 500.664062 C 743.769531 507.316406 741.878906 513.914062 739.796875 520.457031 C 737.714844 526.996094 735.445312 533.472656 732.984375 539.882812 C 730.519531 546.289062 727.871094 552.621094 725.039062 558.871094 C 722.203125 565.125 719.191406 571.289062 715.992188 577.367188 C 712.796875 583.441406 709.425781 589.417969 705.878906 595.296875 C 702.332031 601.171875 698.617188 606.941406 694.730469 612.601562 C 690.84375 618.261719 686.796875 623.800781 682.585938 629.222656 C 678.375 634.644531 674.007812 639.9375 669.484375 645.101562 C 664.964844 650.269531 660.292969 655.296875 655.476562 660.1875 C 650.660156 665.078125 645.703125 669.824219 640.605469 674.421875 C 635.511719 679.023438 630.285156 683.46875 624.925781 687.761719 C 619.570312 692.054688 614.089844 696.1875 608.492188 700.160156 C 602.890625 704.128906 597.179688 707.933594 591.355469 711.566406 C 585.53125 715.203125 579.609375 718.664062 573.582031 721.953125 C 567.554688 725.242188 561.4375 728.347656 555.226562 731.277344 C 549.019531 734.207031 542.726562 736.949219 536.359375 739.507812 C 529.988281 742.066406 523.546875 744.4375 517.039062 746.617188 Z M 517.039062 746.710938 " fill-opacity="1" fill-rule="evenodd"/></svg>